<svg xmlns="http://www.w3.org/2000/svg" viewBox="0 0 64 64" fill="none" stroke="currentColor" stroke-width="2" stroke-linecap="round" stroke-linejoin="round">
  <!-- Game controller -->
  <path d="M16 28 C16 24 18 20 22 20 L42 20 C46 20 48 24 48 28 L48 36 C48 40 46 44 42 44 L38 44 C36 44 34 42 34 40 L34 38 L30 38 L30 40 C30 42 28 44 26 44 L22 44 C18 44 16 40 16 36 Z" fill="none"/>
  <path d="M22 28 L22 34 M19 31 L25 31" stroke-width="2.5"/>
  <circle cx="40" cy="28" r="2" fill="currentColor"/>
  <circle cx="44" cy="32" r="2" fill="currentColor"/>
</svg>
