<svg xmlns="http://www.w3.org/2000/svg" viewBox="0 0 64 64" fill="none" stroke="currentColor" stroke-width="2" stroke-linecap="round" stroke-linejoin="round">
  <!-- Paint palette -->
  <path d="M32 12 C20 12 12 20 12 32 C12 38 14 42 18 42 C20 42 22 40 22 38 C22 36 20 34 20 32 C20 28 24 28 24 32 C24 36 28 36 28 32 C28 28 32 28 32 32 C32 36 36 36 36 32 C36 28 40 28 40 32 C40 34 38 36 38 38 C38 40 40 42 42 42 C46 42 48 38 48 32 C48 20 40 12 32 12 Z" fill="none"/>
  <circle cx="20" cy="26" r="2" fill="currentColor"/>
  <circle cx="28" cy="22" r="2" fill="currentColor"/>
  <circle cx="36" cy="22" r="2" fill="currentColor"/>
  <circle cx="44" cy="26" r="2" fill="currentColor"/>
</svg>
